<svg width="1731" height="1024" viewBox="0 0 1731 1024" fill="none" xmlns="http://www.w3.org/2000/svg">
<g clip-path="url(#clip0_81_89)">
<rect width="1731" height="1024" fill="url(#paint0_linear_81_89)"/>
<path d="M900.5 778C461 675 182.41 746.577 1 845.004V1024H1731V845.004C1509.34 942.437 1229.93 855.203 900.5 778Z" fill="url(#paint1_linear_81_89)"/>
<path d="M972.488 236.919C961.688 280.919 924.487 259.419 919.987 245.419C885.498 302.918 830.998 249.418 849.487 217.918C778.499 245.419 791.502 126.918 849.487 158.921C841.99 109.418 913.487 105.418 921.487 149.92C939.887 122.72 969.488 147.421 961.988 168.919C1017.19 153.319 1027.99 236.92 972.488 236.919Z" fill="white"/>
<path d="M315.488 524.919C304.688 568.919 267.487 547.419 262.987 533.419C228.498 590.918 173.998 537.418 192.487 505.918C121.499 533.419 134.502 414.918 192.487 446.921C184.99 397.418 256.487 393.418 264.487 437.92C282.887 410.72 312.488 435.421 304.988 456.919C360.188 441.319 370.988 524.92 315.488 524.919Z" fill="white"/>
<path d="M211.488 180.919C200.688 224.919 163.487 203.419 158.987 189.419C124.498 246.918 69.998 193.418 88.4875 161.918C17.4989 189.419 30.5023 70.918 88.4875 102.921C80.9902 53.4178 152.487 49.4178 160.487 93.9199C178.887 66.7199 208.488 91.4207 200.988 112.919C256.188 97.3186 266.988 180.92 211.488 180.919Z" fill="white"/>
<path d="M1349.82 269.758C1271.82 292.958 1254.82 205.258 1311.32 196.258C1265.82 137.757 1342.82 99.7568 1373.82 135.258C1376.32 58.7568 1480.32 72.7561 1472.82 118.258C1494.42 89.4582 1520.82 112.757 1518.82 130.758C1572.02 97.1578 1597.82 159.758 1573.32 184.258C1652.82 186.758 1635.82 290.758 1570.82 268.258C1573.32 322.758 1501.32 307.258 1486.32 279.758C1450.32 354.558 1354.82 336.258 1349.82 269.758Z" fill="white"/>
<path d="M1236.81 507.943C1254.41 522.743 1264.31 504.443 1262.31 494.443C1313.82 525.443 1326.82 440.443 1278.32 442.442C1301.82 411.943 1239.82 390.442 1235.32 423.943C1205.82 394.942 1183.32 427.443 1191.82 444.443C1145.02 458.443 1170.82 507.943 1198.81 492.943C1193.21 530.943 1231.32 522.443 1236.81 507.943Z" fill="white"/>
<path d="M865.809 583.943C883.409 598.743 893.309 580.443 891.309 570.443C942.816 601.443 955.816 516.443 907.316 518.442C930.816 487.943 868.816 466.442 864.316 499.943C834.816 470.942 812.316 503.443 820.819 520.443C774.019 534.443 799.816 583.943 827.809 568.943C822.209 606.943 860.319 598.443 865.809 583.943Z" fill="white"/>
<path d="M609.809 371.943C627.409 386.743 637.309 368.443 635.309 358.443C686.816 389.443 699.816 304.443 651.316 306.442C674.816 275.943 612.816 254.442 608.316 287.943C578.816 258.942 556.316 291.443 564.819 308.443C518.019 322.443 543.816 371.943 571.809 356.943C566.209 394.943 604.319 386.443 609.809 371.943Z" fill="white"/>
<path d="M1568.81 638.943C1586.41 653.743 1596.31 635.443 1594.31 625.443C1645.82 656.443 1658.82 571.443 1610.32 573.442C1633.82 542.943 1571.82 521.442 1567.32 554.943C1537.82 525.942 1515.32 558.443 1523.82 575.443C1477.02 589.443 1502.82 638.943 1530.81 623.943C1525.21 661.943 1563.32 653.443 1568.81 638.943Z" fill="white"/>
</g>
<defs>
<linearGradient id="paint0_linear_81_89" x1="865.5" y1="0" x2="865.5" y2="763.5" gradientUnits="userSpaceOnUse">
<stop stop-color="#55AFD5"/>
<stop offset="1" stop-color="#B0D7EF"/>
</linearGradient>
<linearGradient id="paint1_linear_81_89" x1="39.4445" y1="670.268" x2="1687.35" y2="1168.4" gradientUnits="userSpaceOnUse">
<stop stop-color="#94BA38"/>
<stop offset="1" stop-color="#5D8647"/>
</linearGradient>
<clipPath id="clip0_81_89">
<rect width="1731" height="1024" fill="white"/>
</clipPath>
</defs>
</svg>
