<svg width="1440" height="841" viewBox="0 0 1440 841" fill="none" xmlns="http://www.w3.org/2000/svg">
<g clip-path="url(#clip0_89_19)">
<rect width="1440" height="841" fill="url(#paint0_linear_89_19)"/>
<path d="M751 685.999C297 578.499 264 613.5 0 685.999V841.262H1440V685.999C1255.5 783.504 1031.37 752.386 751 685.999Z" fill="url(#paint1_linear_89_19)"/>
<path d="M777.488 271.919C766.688 315.919 729.487 294.419 724.987 280.419C690.498 337.918 635.998 284.418 654.487 252.918C583.499 280.419 596.502 161.918 654.487 193.921C646.99 144.418 718.487 140.418 726.487 184.92C744.887 157.72 774.488 182.421 766.988 203.919C822.188 188.319 832.988 271.92 777.488 271.919Z" fill="white"/>
<path d="M315.488 501.919C304.688 545.919 267.487 524.419 262.987 510.419C228.498 567.918 173.998 514.418 192.487 482.918C121.499 510.419 134.502 391.918 192.487 423.921C184.99 374.418 256.487 370.418 264.487 414.92C282.887 387.72 312.488 412.421 304.988 433.919C360.188 418.319 370.988 501.92 315.488 501.919Z" fill="white"/>
<path d="M211.488 214.919C200.688 258.919 163.487 237.419 158.987 223.419C124.498 280.918 69.998 227.418 88.4875 195.918C17.4989 223.419 30.5023 104.918 88.4875 136.921C80.9902 87.4178 152.487 83.4178 160.487 127.92C178.887 100.72 208.488 125.421 200.988 146.919C256.188 131.319 266.988 214.92 211.488 214.919Z" fill="white"/>
<path d="M1063.82 303.758C985.82 326.958 968.822 239.258 1025.32 230.258C979.822 171.757 1056.82 133.757 1087.82 169.258C1090.32 92.7568 1194.32 106.756 1186.82 152.258C1208.42 123.458 1234.82 146.757 1232.82 164.758C1286.02 131.158 1311.82 193.758 1287.32 218.258C1366.82 220.758 1349.82 324.758 1284.82 302.258C1287.32 356.758 1215.32 341.258 1200.32 313.758C1164.32 388.558 1068.82 370.258 1063.82 303.758Z" fill="white"/>
<path d="M952.809 484.943C970.409 499.743 980.309 481.443 978.309 471.443C1029.82 502.443 1042.82 417.443 994.316 419.442C1017.82 388.943 955.816 367.442 951.316 400.943C921.816 371.942 899.316 404.443 907.819 421.443C861.019 435.443 886.816 484.943 914.809 469.943C909.209 507.943 947.319 499.443 952.809 484.943Z" fill="white"/>
<path d="M647.809 580.943C665.409 595.743 675.309 577.443 673.309 567.443C724.816 598.443 737.816 513.443 689.316 515.442C712.816 484.943 650.816 463.442 646.316 496.943C616.816 467.942 594.316 500.443 602.819 517.443C556.019 531.443 581.816 580.943 609.809 565.943C604.209 603.943 642.319 595.443 647.809 580.943Z" fill="white"/>
<path d="M392.809 349.943C410.409 364.743 420.309 346.443 418.309 336.443C469.816 367.443 482.816 282.443 434.316 284.442C457.816 253.943 395.816 232.442 391.316 265.943C361.816 236.942 339.316 269.443 347.819 286.443C301.019 300.443 326.816 349.943 354.809 334.943C349.209 372.943 387.319 364.443 392.809 349.943Z" fill="white"/>
<path d="M1282.81 615.943C1300.41 630.743 1310.31 612.443 1308.31 602.443C1359.82 633.443 1372.82 548.443 1324.32 550.442C1347.82 519.943 1285.82 498.442 1281.32 531.943C1251.82 502.942 1229.32 535.443 1237.82 552.443C1191.02 566.443 1216.82 615.943 1244.81 600.943C1239.21 638.943 1277.32 630.443 1282.81 615.943Z" fill="white"/>
</g>
<defs>
<linearGradient id="paint0_linear_89_19" x1="720" y1="0" x2="720" y2="627.054" gradientUnits="userSpaceOnUse">
<stop stop-color="#55AFD5"/>
<stop offset="1" stop-color="#B0D7EF"/>
</linearGradient>
<linearGradient id="paint1_linear_89_19" x1="32" y1="487.268" x2="1440" y2="841.268" gradientUnits="userSpaceOnUse">
<stop stop-color="#94BA38"/>
<stop offset="1" stop-color="#5D8647"/>
</linearGradient>
<clipPath id="clip0_89_19">
<rect width="1440" height="841" fill="white"/>
</clipPath>
</defs>
</svg>
